<svg transform="scale(1)" id="aPjxkjx9EJ" xmlns="http://www.w3.org/2000/svg" viewBox="0 0 500 500" class="pbimage_pbimage__wrapper__image__0LEis false"><title>Collaboration</title><defs><style> .cls-1{fill:#fff;} .cls-2{fill:#f4a28c;} .cls-3{fill:#ffb07b;} .cls-4{fill:none;opacity:.23;} .cls-5{fill:#e6e6e6;} .cls-6{fill:#b5503c;} .cls-7{fill:#24285b;} .cls-8{fill:#ffd200;} .cls-9{fill:#68e1fd;}
 .cls-9{fill:#ba68fd;}
 .cls-8{fill:#b051ff;}
 .cls-7{fill:#754bdc;}
 .cls-6{fill:#B5503C;}
 .cls-5{fill:#E6E6E6;}
 .cls-3{fill:#FFB07B;}
 .cls-2{fill:#F4A28C;}
 .cls-1{fill:#FFFFFF;}</style></defs><g id="bg"><g class="cls-4" id="bg-2"><circle class="cls-5" cx="253.06" cy="263.82" r="183.71"></circle></g><polygon class="cls-5" points="310.01 199.41 331.17 166.88 343.43 176.94 315.85 205.03 310.01 199.41" fill="#E6E6E6"></polygon><polygon class="cls-5" points="203.7 196.14 173.42 171.87 184.65 160.67 209.86 190.88 203.7 196.14" fill="#E6E6E6"></polygon><polygon class="cls-5" points="248.06 335.08 234.52 371.45 220.36 364.31 241.13 330.88 248.06 335.08" fill="#E6E6E6"></polygon><polygon class="cls-5" points="273.74 331.37 295.2 363.7 281.1 370.96 266.26 334.51 273.74 331.37" fill="#E6E6E6"></polygon><polygon class="cls-5" points="321.03 220.88 352.65 224.67 349.68 237.34 319.02 227.22 321.03 220.88" fill="#E6E6E6"></polygon><polygon class="cls-5" points="196.25 226.52 165 232.63 163.93 219.67 196.22 219.87 196.25 226.52" fill="#E6E6E6"></polygon></g><g id="hand3"><path class="cls-3" d="m373.45,350.34l-28.5-35.85s-4.65-18.7-7.28-31.48c-2.63-12.78-6.95-20.21-15.03-27.52-8.08-7.32-12.45-8.95-15.49-6.41s.14,13.5.14,13.5c0,0-2.55-4.44-17.39-18.31-14.84-13.87-19.55-14.84-23.88-11.01s20.17,32.61,20.17,32.61c0,0-25.12-29.79-33.8-27.28-8.68,2.51,3.47,21.33,11.89,28.67,8.42,7.34,13.53,13.02,13.53,13.02,0,0-22.4-24.14-33.07-22.4-10.68,1.73,13.33,27.42,24.06,35.92,0,0-16.43-15.67-23.78-12.71-7.34,2.96,17.59,24.61,27.6,33.75,10.01,9.14,37.09,12.13,55,31.66l14.75,21.05,31.07-17.2Z"></path><path class="cls-7" d="m445.66,388.42l-94-70.47-28.89,29.9,74.49,90.41s23.23-10.51,48.4-49.84Z"></path></g><g id="hand2"><path class="cls-2" d="m130.03,333.77l35.09-29.43s8.3-17.39,13.43-29.39,10.85-18.41,20.23-23.96c9.38-5.55,13.99-6.28,16.46-3.18,2.46,3.1-11.11,20.13-11.11,20.13,0,0,11.66-10.77,28.98-21.4,17.31-10.62,22.13-10.63,25.6-6.01s-26.29,27.92-26.29,27.92c0,0,30.57-24.17,38.57-19.97,8,4.2-7.66,20.21-17.38,25.71-9.72,5.51-15.86,10.05-15.86,10.05,0,0,26.77-19.17,36.89-15.33s-18.54,24.2-30.76,30.38c0,0,19.24-12.07,25.84-7.7s-22.16,20.6-33.8,27.55c-11.64,6.95-38.76,4.46-60.22,20.02l-18.67,17.67-27-23.06Z"></path><path class="cls-9" d="m57.45,382.75l93.57-71.05,29.07,29.73-73.93,90.86s-23.29-10.37-48.71-49.54Z"></path></g><g id="hand1"><path class="cls-6" d="m274.53,138.14l1.75,43.42s6.69,20.13,13.35,31.35c6.66,11.22,8.46,19.62,7.41,30.47-1.05,10.85-3.19,15-7.15,15.16s-9.69-20.85-9.69-20.85c0,0,1.82,15.77.17,36.02-1.64,20.25-4.48,24.14-10.25,24.22-5.78.08-7.03-37.7-7.03-37.7,0,0,1.47,38.94-6.64,42.93-8.11,3.98-11.79-18.11-10.5-29.2,1.29-11.09,1.25-18.73,1.25-18.73,0,0-.33,32.92-9.39,38.83-9.07,5.9-8.59-29.25-6.37-42.76,0,0-1.61,22.65-9.03,25.4-7.42,2.75-3.55-30.04-2.29-43.54s19.27-33.93,19.38-60.43l-3.25-25.5,38.3-9.07Z"></path><path class="cls-8" d="m289.83,55.34l-12.32,99.9-45.64-.49-11.51-99.07s23.68-9.45,69.47-.33Z"></path><rect class="cls-7" x="230.57" y="166.77" width="53.11" height="17.87" rx="5.11" ry="5.11" transform="translate(-7.01 10.73) rotate(-2.36)"></rect><circle class="cls-1" cx="257.07" cy="174.3" r="14.17"></circle></g></svg>