<svg transform="scale(1)" id="ZsYiL0PoGJ" xmlns="http://www.w3.org/2000/svg" viewBox="0 0 500 500" class="pbimage_pbimage__wrapper__image__0LEis false"><title>Cybersecurity</title><defs><style> .cls-1, .cls-2{fill:#fff;} .cls-3{fill:#e6e6e6;} .cls-4{opacity:.02;} .cls-4, .cls-5{fill:#000001;} .cls-6{fill:#24285b;} .cls-5{opacity:.08;} .cls-2{opacity:.6;} .cls-7{fill:#ffd200;} .cls-8{fill:#68e1fd;}
 .cls-4, .cls-5{fill:#000001;}
 .cls-1, .cls-2{fill:#FFFFFF;}
 .cls-8{fill:#ba68fd;}
 .cls-7{fill:#b051ff;}
 .cls-6{fill:#754bdc;}
 .cls-3{fill:#E6E6E6;}</style></defs><g id="monitor"><ellipse class="cls-4" cx="250" cy="419.66" rx="236.28" ry="24.16"></ellipse><polygon class="cls-8" points="225.12 316.64 212.25 401 295.01 401 275.82 316.64 225.12 316.64" fill="#ba68fd"></polygon><path class="cls-6" d="m54.94,35.55h390.11c8.5,0,15.4,6.9,15.4,15.4v248.76H39.55V50.94c0-8.5,6.9-15.4,15.4-15.4Z" fill="#754bdc"></path><path class="cls-1" d="m64.3,49.29h371.41c6.23,0,11.28,5.05,11.28,11.28v211.38H53.02V60.57c0-6.23,5.05-11.28,11.28-11.28Z"></path><path class="cls-8" d="m39.55,271.95h420.9v45.91c0,10.12-8.21,18.33-18.33,18.33H57.88c-10.12,0-18.33-8.21-18.33-18.33v-45.91h0Z" fill="#ba68fd"></path><circle class="cls-1" cx="250" cy="302.21" r="16.85"></circle><polygon class="cls-5" points="222.14 336.19 280.27 336.19 217.59 365.97 222.14 336.19"></polygon><rect class="cls-8" x="159.33" y="386.61" width="183.64" height="37" rx="11.35" ry="11.35" fill="#ba68fd"></rect><rect class="cls-2" x="159.33" y="386.61" width="183.64" height="37" rx="11.35" ry="11.35"></rect><rect class="cls-3" x="64.47" y="60.98" width="371.06" height="30.33" rx="9.3" ry="9.3" fill="#E6E6E6"></rect><circle class="cls-6" cx="83.45" cy="76.14" r="6.88" fill="#754bdc"></circle><circle class="cls-8" cx="103.91" cy="76.14" r="6.88" fill="#ba68fd"></circle><circle class="cls-7" cx="123.19" cy="76.14" r="6.88" fill="#b051ff"></circle><rect class="cls-5" x="141.56" y="69.27" width="247.97" height="13.75" rx="4.22" ry="4.22"></rect></g><g id="lock"><ellipse class="cls-4" cx="253.63" cy="233.98" rx="92.37" ry="16.62"></ellipse><path class="cls-6" d="m252.5,179.6c-19.16,0-34.75-15.59-34.75-34.75s15.59-34.75,34.75-34.75,34.75,15.59,34.75,34.75-15.59,34.75-34.75,34.75Zm0-56.71c-12.11,0-21.96,9.85-21.96,21.96s9.85,21.96,21.96,21.96,21.96-9.85,21.96-21.96-9.85-21.96-21.96-21.96Z"></path><rect class="cls-7" x="204.02" y="147.49" width="99.17" height="87.24" rx="15.09" ry="15.09"></rect><path class="cls-6" d="m264.93,187.97c0-6.27-5.08-11.36-11.36-11.36s-11.36,5.08-11.36,11.36c0,4.35,2.45,8.13,6.04,10.03l-4.05,18.24h18.68l-4.05-18.21c3.62-1.9,6.09-5.69,6.09-10.06Z"></path></g></svg>