<svg transform="scale(1)" id="cO1kz6VQUH" xmlns="http://www.w3.org/2000/svg" viewBox="0 0 500 500" class="pbimage_pbimage__wrapper__image__0LEis false"><title>Leadership</title><defs><style> .cls-1, .cls-2, .cls-3{fill:#fff;} .cls-4{fill:#f4a28c;} .cls-5{fill:#a5a5a5;} .cls-2{opacity:.1;} .cls-3{opacity:.48;} .cls-6{fill:#e6e6e6;} .cls-7{fill:#000001;opacity:.11;} .cls-8{fill:#24285b;} .cls-9{fill:#ffd200;} .cls-10{fill:#68e1fd;}
 .cls-1, .cls-2, .cls-3{fill:#FFFFFF;}
 .cls-10{fill:#ba68fd;}
 .cls-9{fill:#b051ff;}
 .cls-8{fill:#754bdc;}
 .cls-7{fill:#000001;}
 .cls-6{fill:#E6E6E6;}
 .cls-5{fill:#A5A5A5;}
 .cls-4{fill:#F4A28C;}</style></defs><path class="cls-4" d="m32.28,189.78s-11.82-7.52-15.39-9.84c-3.57-2.32-2.86,2.68-.89,4.11s5.54,4.87,5.54,4.87c0,0-6.83-.22-7.17,3.88s1.99,3.17,5.74,3.82,7.82,1.88,7.82,1.88l4.36-8.71Z"></path><g id="team"><path class="cls-5" d="m116.56,407.01s-32.68-20.89-64.82-85.18c0,0,175.18,15,267.33,20.36,92.14,5.36,166.61,1.42,166.61,1.42,0,0-8.04,68.45-60,86.82-51.97,18.37-234.11,34.97-309.11-23.42Z" fill="#A5A5A5"></path><path class="cls-6" d="m426.1,376.1c-151.27,0-326.06-18.23-327.92-18.43l.33-3.13c1.98.21,199.42,20.8,356.07,18.18l.05,3.15c-9.37.16-18.92.23-28.53.23Z" fill="#E6E6E6"></path><path class="cls-10" d="m244.28,256.58s15.46.04,31.79,14.28c15.92,13.89-8.81,66.58-8.81,66.58l-65.36-3.44s-1.4-14.97.68-38.26c2.08-23.28,12.47-42.7,44.63-38.9" fill="#ba68fd"></path><path class="cls-8" d="m223.09,236.74s-6.59,5.42-6.72,12.43c0,0,7.67,4.84,14.29,2.54,6.61-2.3,2.41-11.59,2.41-11.59l-9.98-3.38Z" fill="#754bdc"></path><path class="cls-4" d="m222.43,230.46l-2.55,2.22c-.63.55-.48,1.56.29,1.9l2.53,1.11-.27-5.23Z" fill="#F4A28C"></path><path class="cls-4" d="m223.79,225.33s-2.53,7.75-2.43,13.32c.04,2.26,1.94,4.08,4.2,4.01,2.8-.09,6.57-1.03,8.43-5.02l3.99-6.38s2.36-4.09-1.37-8.35-11.52-2.38-12.82,2.42Z" fill="#F4A28C"></path><polygon class="cls-4" points="237.6 228.22 244.28 256.58 226.07 270.02 230.52 233.17 237.6 228.22" fill="#F4A28C"></polygon><path class="cls-4" d="m122.15,203.64l-3.2,1.09c-.79.27-1.03,1.27-.45,1.87l1.92,1.99,1.72-4.95Z" fill="#F4A28C"></path><path class="cls-4" d="m125.35,199.4s-5.27,6.22-7.27,11.42c-.81,2.11.26,4.51,2.38,5.3,2.63.97,6.47,1.52,9.7-1.47l6.1-4.4s3.73-2.89,1.88-8.25-9.77-6.55-12.79-2.6Z" fill="#F4A28C"></path><path class="cls-8" d="m132.75,236.79s-30.01-14.93-48.58-23.84c-18.57-8.9-52.14-24.97-52.14-24.97l-7.5,15s72.14,44.91,91.43,57.46c19.29,12.54,35.02-10.2,16.8-23.65Z" fill="#754bdc"></path><path class="cls-7" d="m132.75,236.79s-30.01-14.93-48.58-23.84c-18.57-8.9-52.14-24.97-52.14-24.97l-7.5,15s72.14,44.91,91.43,57.46c19.29,12.54,35.02-10.2,16.8-23.65Z" fill="#000001"></path><rect class="cls-8" x="214.11" y="252.44" width="4.53" height="164.32" rx="2.26" ry="2.26" transform="translate(-48.88 37.25) rotate(-8.85)" fill="#754bdc"></rect><path class="cls-8" d="m141.47,232.74s23.33.42,35.11,12.21c11.79,11.79-2.99,86.85-2.99,86.85l-72.11-5.81s-1.51-28.57-2.58-47.71-8.62-51.05,42.57-45.54Z" fill="#754bdc"></path><polygon class="cls-4" points="133.42 204.74 141.47 232.74 123.94 247.06 126.58 210.03 133.42 204.74" fill="#F4A28C"></polygon><path class="cls-8" d="m224.56,223.69s-.25,6.29,4.72,8.68c4.97,2.38,2.26,5.73,1.68,11.34-.58,5.6,1.96,8.4,1.96,8.4l20.96.5s.98-12.18-3.16-16.18c-5.19-5.01-6.58-4.76-7.11-9.81s-11.89-11.83-19.05-2.93Z" fill="#754bdc"></path><path class="cls-4" d="m254.15,281.94c-.02-13.87,18.26-19.04,25.57-7.25,2.31,3.73,3.82,8.35,3.64,14-.66,21.62,1.77,60.02-3.31,64.65-5.07,4.63-55.49-11.91-55.49-11.91,0,0-11.35-1.3-14.89-5.17s3.08-12.26,7.72-12.04,10.81,8.38,10.81,8.38l34.64,3.31s-8.66-31.28-8.69-53.97Z" fill="#F4A28C"></path><path class="cls-9" d="m339.64,261.94s15.46.04,31.79,14.28c15.92,13.89-8.81,66.58-8.81,66.58l-65.26-1.95s-1.51-16.47.58-39.75c2.08-23.28,12.47-42.7,44.63-38.9" fill="#b051ff"></path><path class="cls-4" d="m317.79,235.81l-2.55,2.22c-.63.55-.48,1.56.29,1.9l2.53,1.11-.27-5.23Z" fill="#F4A28C"></path><path class="cls-8" d="m339.64,222.18s8.17-5.15,11.39,3.85c3.21,9.01-4.64,14.13-3.21,20.85s-5.92,11.72-11,7.79c-5.08-3.93-7.22-10.71-5.79-17.14,1.43-6.43,8.61-15.36,8.61-15.36Z" fill="#754bdc"></path><path class="cls-4" d="m319.15,230.69s-2.53,7.75-2.43,13.32c.04,2.26,1.94,4.08,4.2,4.01,2.8-.09,6.57-1.03,8.43-5.02l3.99-6.38s2.36-4.09-1.37-8.35-11.52-2.38-12.82,2.42Z" fill="#F4A28C"></path><polygon class="cls-4" points="332.96 233.57 339.64 261.94 321.43 275.38 325.88 238.53 332.96 233.57" fill="#F4A28C"></polygon><path class="cls-10" d="m438.93,266.72s15.46.04,31.79,14.28c15.92,13.89-8.81,66.58-8.81,66.58l-65.31-2.72s-1.45-15.7.63-38.98c2.08-23.28,12.47-42.7,44.63-38.9" fill="#ba68fd"></path><path class="cls-4" d="m417.08,240.6l-2.55,2.22c-.63.55-.48,1.56.29,1.9l2.53,1.11-.27-5.23Z" fill="#F4A28C"></path><path class="cls-4" d="m418.44,235.48s-2.53,7.75-2.43,13.32c.04,2.26,1.94,4.08,4.2,4.01,2.8-.09,6.57-1.03,8.43-5.02l3.99-6.38s2.36-4.09-1.37-8.35-11.52-2.38-12.82,2.42Z" fill="#F4A28C"></path><polygon class="cls-4" points="432.25 238.36 438.93 266.72 420.72 280.17 425.16 243.32 432.25 238.36" fill="#F4A28C"></polygon><path class="cls-9" d="m331.92,222.72s4.01-5.07,7.72-2.18,3.5,12.71-2.82,11.82-4.9-9.64-4.9-9.64Z" fill="#b051ff"></path><path class="cls-8" d="m316.72,227.63s1.62,5.71,5.82,6.43,5.54.98,5.54.98c0,0-.63,3.3,1.52,5s5.47,2.47,5.47,2.47c0,0,2.92-1.67,3.28-9.97.36-8.3-3.66-10.89-6.43-11.79s-8.2-.54-10.49.36-6.53,2.85-4.71,6.52Z" fill="#754bdc"></path><path class="cls-8" d="m424.69,238.43s2.6,11.11,10.09,10.69c7.5-.42,1.32-12.16,1.32-12.16,0,0,2.16-6.81-1.33-10.93s-11.52-1.71-11.52-1.71c0,0-4.58-2.68-7.25-1.88s-1.87,3.58-1.87,3.58c0,0-6.68.29-6.42,4.65s.45,8.73,16.97,7.75Z" fill="#754bdc"></path><path class="cls-8" d="m124.97,195.22s-1.79-.36-1.7,2.5,4.02,2.59,4.02,2.59c0,0-.18,3.21,2.59,3.84s2.82,2.41,2.82,2.41c0,0-.85,2.32-3.09,3.48s-8.14-3.55-10.41-2.71-3.79,6.46-1.38,8.43,7.75,2.55,10.39,1.14,7.2-5.16,7.2-5.16c0,0,4.1-2.77,5.26-5.44s-.8-4.29-.8-4.29c0,0,.63-4.29-.63-6.16s-3.66-1.16-3.66-1.16c0,0,.09-4.29-2.14-5.18s-3.66,2.95-3.66,2.95c0,0-1.16-1.61-3.39-1.16s-2.05,2.77-1.43,3.93Z" fill="#754bdc"></path><path class="cls-1" d="m124.98,232.42l-2.83,29.3,19.32-28.98s-8.89,3.75-16.48-.32Z"></path><path class="cls-8" d="m159.44,235.99s17.68,3.16,23.04,14.5c5.36,11.34-7.5,65.18-19.02,74.02-11.52,8.84-76.88-30.54-76.88-30.54l10.18-14.73s35.63,14.17,48.75,17.67c0,0,4.29-58.36,13.93-60.92Z" fill="#754bdc"></path><rect class="cls-8" x="88.74" y="256.06" width="7.5" height="20.47" transform="translate(198.85 5.23) rotate(41.32)" fill="#754bdc"></rect><rect class="cls-8" x="76.57" y="267.52" width="11.79" height="21.16" transform="translate(204.15 14.79) rotate(41.32)" fill="#754bdc"></rect><rect class="cls-8" x="64.04" y="279.54" width="13.79" height="23.57" transform="translate(210.01 25.69) rotate(41.32)" fill="#754bdc"></rect><rect class="cls-9" x="50.81" y="296.79" width="24.11" height="8.04" rx="4.02" ry="4.02" transform="translate(214.26 33.39) rotate(41.32)" fill="#b051ff"></rect><rect class="cls-1" x="94.57" y="256.77" width="9.38" height="4.06" rx="2.03" ry="2.03" transform="translate(195.59 -1.11) rotate(41.32)"></rect><path class="cls-2" d="m159.44,235.99s17.68,3.16,23.04,14.5c5.36,11.34-7.5,65.18-19.02,74.02-11.52,8.84-76.88-30.54-76.88-30.54l10.18-14.73s35.63,14.17,48.75,17.67c0,0,4.29-58.36,13.93-60.92Z"></path><path class="cls-4" d="m95.62,280.89s-4.75-4.33-10.91-8.62c-6.16-4.29-12.05,1.03-13.39,2.66s-2.14,11.8,4.82,12.34c6.96.54,12.18,4.19,12.18,4.19l7.3-10.57Z" fill="#F4A28C"></path><path class="cls-4" d="m177.72,332.12l24.87-36.38s6.99-7.07,13.79-4.42c6.79,2.65,6.79,10.4-1.78,11.88-8.57,1.48-12.78,3.84-12.78,3.84l-6.08,26.48-18.01-1.4Z" fill="#F4A28C"></path><rect class="cls-8" x="311.79" y="261.64" width="4.53" height="164.32" rx="2.26" ry="2.26" transform="translate(-49.14 52.39) rotate(-8.85)" fill="#754bdc"></rect><path class="cls-4" d="m276.47,339.76l23.8-34.82s6.99-7.07,13.79-4.42c6.79,2.65,6.79,10.4-1.78,11.88-8.57,1.48-12.78,3.84-12.78,3.84l-5.88,24.33-17.14-.81Z" fill="#F4A28C"></path><rect class="cls-8" x="417.28" y="265.42" width="4.53" height="164.32" rx="2.26" ry="2.26" transform="translate(-48.46 68.65) rotate(-8.85)" fill="#754bdc"></rect><path class="cls-4" d="m381.34,344.45l24.42-35.73s6.99-7.07,13.79-4.42c6.79,2.65,6.79,10.4-1.78,11.88-8.57,1.48-12.78,3.84-12.78,3.84l-5.73,24.95-17.92-.52Z" fill="#F4A28C"></path><path class="cls-4" d="m349.51,287.3c-.02-13.87,18.26-19.04,25.57-7.25,2.31,3.73,3.82,8.35,3.64,14-.66,21.62,1.77,60.02-3.31,64.65-5.07,4.63-55.49-11.91-55.49-11.91,0,0-11.35-1.3-14.89-5.17s3.08-12.26,7.72-12.04,10.81,8.38,10.81,8.38l34.64,3.31s-8.66-31.28-8.69-53.97Z" fill="#F4A28C"></path><path class="cls-4" d="m448.8,292.08c-.02-13.87,18.26-19.04,25.57-7.25,2.31,3.73,3.82,8.35,3.64,14-.66,21.62,1.77,60.02-3.31,64.65-5.07,4.63-55.49-11.91-55.49-11.91,0,0-11.35-1.3-14.89-5.17-3.54-3.87,3.08-12.26,7.72-12.04s10.81,8.38,10.81,8.38l34.64,3.31s-8.66-31.28-8.69-53.97Z" fill="#F4A28C"></path><path class="cls-10" d="m449.78,331.47l31.88-2.41s5.96-47.54-20.09-53.68-13.39,52.61-11.79,56.09Z" fill="#ba68fd"></path><path class="cls-3" d="m449.78,331.47l31.88-2.41s5.96-47.54-20.09-53.68-13.39,52.61-11.79,56.09Z"></path></g><g id="bg"><circle class="cls-9" cx="253.98" cy="69.3" r="50.82"></circle><path class="cls-6" d="m70.42,396.81c-.33-5.64,5.76-9.28,10.58-6.34,4.91,3,12.39,4.86,23.48,2.15,25.7-6.28,17.7-13.7,38.83-15.99,21.13-2.28,15.99,23.41,43.4,23.41s30.84-22.27,53.68-16.56c22.84,5.71,7.99,20.56,31.41,19.42,23.41-1.14,26.84-21.13,47.4-17.13s26.27,23.98,46.82,23.98,22.84-20.13,43.4-16.63c20.56,3.5,20.56,22.91,41.69,24.63,7.77.63,14.69-.36,20.34-1.87,6.23-1.66,11.13,5.42,7.42,10.68-17.95,25.4-74.06,67.94-246.46,51.15,0,0-158.2-15.72-161.98-80.89Z"></path><path class="cls-6" d="m342.92,191.97h106.47s-1.65-21.41-12.97-27.98c-11.32-6.57-24.58,10.92-24.58,10.92,0,0,.28-19.74-17.4-27.77s-26.54,27.77-26.54,27.77c0,0-26.78-19.1-24.97,17.06Z"></path><path class="cls-6" d="m56.77,162.56h96.56s-1.5-19.42-11.77-25.38-22.29,9.9-22.29,9.9c0,0,.25-17.9-15.78-25.19-16.03-7.29-24.07,25.19-24.07,25.19,0,0-24.29-17.32-22.65,15.48Z"></path><path class="cls-6" d="m242.12,130.63h72.68s-1.13-14.62-8.86-19.1c-7.73-4.49-16.78,7.46-16.78,7.46,0,0,.19-13.47-11.88-18.96-12.07-5.49-18.12,18.96-18.12,18.96,0,0-18.28-13.04-17.05,11.65Z"></path></g></svg>